<?xml version="1.0" encoding="UTF-8" standalone="no"?>
<!-- Creator: CorelDRAW -->

<svg
   xmlns:dc="http://purl.org/dc/elements/1.1/"
   xmlns:cc="http://creativecommons.org/ns#"
   xmlns:rdf="http://www.w3.org/1999/02/22-rdf-syntax-ns#"
   xmlns:svg="http://www.w3.org/2000/svg"
   xmlns="http://www.w3.org/2000/svg"
   xmlns:sodipodi="http://sodipodi.sourceforge.net/DTD/sodipodi-0.dtd"
   xmlns:inkscape="http://www.inkscape.org/namespaces/inkscape"
   xml:space="preserve"
   width="100"
   height="100"
   style="clip-rule:evenodd;fill-rule:evenodd;image-rendering:optimizeQuality;shape-rendering:geometricPrecision;text-rendering:geometricPrecision"
   viewBox="0 0 28.222221 28.222221"
   id="svg2"
   version="1.1"
   inkscape:version="0.91 r13725"
   sodipodi:docname="Fiat_logo.svg"><title
     id="title4153">Fiat Automobiles logo</title><metadata
     id="metadata17"><rdf:RDF><cc:Work
         rdf:about=""><dc:format>image/svg+xml</dc:format><dc:type
           rdf:resource="http://purl.org/dc/dcmitype/StillImage" /><dc:title>Fiat Automobiles logo</dc:title><cc:license
           rdf:resource="http://scripts.sil.org/OFL" /></cc:Work><cc:License
         rdf:about="http://scripts.sil.org/OFL"><cc:permits
           rdf:resource="http://scripts.sil.org/pub/OFL/Reproduction" /><cc:permits
           rdf:resource="http://scripts.sil.org/pub/OFL/Distribution" /><cc:permits
           rdf:resource="http://scripts.sil.org/pub/OFL/Embedding" /><cc:permits
           rdf:resource="http://scripts.sil.org/pub/OFL/DerivativeWorks" /><cc:requires
           rdf:resource="http://scripts.sil.org/pub/OFL/Notice" /><cc:requires
           rdf:resource="http://scripts.sil.org/pub/OFL/Attribution" /><cc:requires
           rdf:resource="http://scripts.sil.org/pub/OFL/ShareAlike" /><cc:requires
           rdf:resource="http://scripts.sil.org/pub/OFL/DerivativeRenaming" /><cc:requires
           rdf:resource="http://scripts.sil.org/pub/OFL/BundlingWhenSelling" /></cc:License></rdf:RDF></metadata><sodipodi:namedview
     pagecolor="#ffffff"
     bordercolor="#666666"
     borderopacity="1"
     objecttolerance="10"
     gridtolerance="10"
     guidetolerance="10"
     inkscape:pageopacity="0"
     inkscape:pageshadow="2"
     inkscape:window-width="1366"
     inkscape:window-height="705"
     id="namedview15"
     showgrid="false"
     inkscape:showpageshadow="false"
     inkscape:document-units="px"
     units="px"
     inkscape:zoom="3.6154517"
     inkscape:cx="56.497075"
     inkscape:cy="48.384832"
     inkscape:window-x="-8"
     inkscape:window-y="-8"
     inkscape:window-maximized="1"
     inkscape:current-layer="svg2" /><defs
     id="defs4"><style
       type="text/css"
       id="style6"><![CDATA[
    .fil0 {fill:#A70230;fill-rule:nonzero}
   ]]></style></defs><path
     style="fill:#a70230;fill-opacity:1"
     d="m 14.000845,0.46437504 c -1.163359,0.002771 -1.640242,0.0466441 -2.674453,0.25311305 C 7.4564207,1.4901217 4.0433646,4.0231217 2.1287348,7.543602 c -2.40357262,4.419461 -2.14377289,9.850075 0.6713695,14.032948 0.88541,1.315588 2.2429201,2.690447 3.5575638,3.6031 1.8037904,1.252241 4.0929789,2.100316 6.2302259,2.308121 0.234207,0.02286 0.495504,0.0482 0.580669,0.05641 0.414436,0.04028 2.07948,-0.01593 2.613037,-0.08818 2.225316,-0.301182 4.230164,-1.079563 6.019606,-2.337057 2.672701,-1.87818 4.609408,-4.690743 5.38125,-7.815106 C 28.05228,13.782827 27.500335,10.077833 25.649808,7.0158858 23.795068,3.9468859 20.793423,1.7177779 17.349425,0.85182552 16.166013,0.55427446 15.373334,0.46257578 14.000845,0.46433545 Z M 13.87064,0.84471462 c 0.702452,0.00396 1.541712,0.034689 1.852902,0.079215 1.602373,0.22931598 3.102724,0.70531988 4.419881,1.40231558 4.147964,2.1948924 6.845117,6.4236815 7.045292,11.0461458 l 0.02483,0.573959 -0.253256,-0.241409 c -0.139313,-0.132786 -0.340956,-0.323445 -0.448076,-0.423717 -0.332499,-0.31121 -0.676783,-1.132109 -0.873498,-2.082665 l -0.08437,-0.407768 0.01514,0.879527 c 0.05559,3.223096 -0.693064,6.510239 -2.162129,9.492963 -0.410808,0.834082 -0.795809,1.456976 -1.115573,1.804972 -0.397391,0.432487 -1.450498,1.169927 -2.261477,1.583616 -1.292573,0.659402 -2.644407,0.99527 -4.5003,1.11812 -0.548512,0.03632 -2.504192,0.05592 -2.538883,0.02543 -0.0089,-0.0079 -0.227925,-0.02543 -0.486834,-0.03929 C 10.960778,25.573692 9.4125004,25.195601 8.2602989,24.619687 7.3837823,24.181585 6.1941979,23.347475 5.8320998,22.91711 5.7187515,22.782398 5.5233223,22.515543 5.3978107,22.324018 5.0902475,21.85469 4.4245984,20.498406 4.1110387,19.702164 3.0909467,17.111852 2.6104846,14.679377 2.6031391,12.067863 c -0.00247,-0.90257 -0.00782,-0.984213 -0.050385,-0.77579 -0.1638304,0.802632 -0.4480507,1.297015 -0.9351329,1.626631 -0.2947616,0.199457 -0.4541681,0.360928 -0.63000646,0.638061 l -0.10993207,0.173341 2.7909e-4,-0.249454 c 2.2862e-4,-0.13717 0.0263159,-0.493125 0.0579068,-0.79104 C 1.2118656,10.088154 2.1659393,7.7734217 3.8144601,5.705645 4.2147899,5.2035251 5.2954787,4.1285077 5.8132937,3.7173324 7.5597058,2.3306025 9.6237756,1.3911913 11.72252,1.0280575 c 0.430005,-0.074405 0.543936,-0.089804 1.17497,-0.15890048 0.179356,-0.019556 0.551602,-0.026811 0.973073,-0.024584 z M 14.15311,2.746943 C 13.513308,2.742783 12.877581,2.758394 12.549139,2.795933 10.275458,3.0561398 8.2254242,3.724088 6.2972247,4.8329854 5.5665183,5.2532115 5.2257985,5.5080555 4.7907384,5.9595082 4.1625442,6.6113948 3.8355197,7.1740144 3.4940566,8.1903758 2.9036507,9.9476832 2.7809291,11.968284 3.1067224,14.56628 c 0.2635902,2.101992 0.945208,4.390342 1.8754845,6.296428 0.2634062,0.539688 0.339262,0.660155 0.5395259,0.857238 0.128166,0.126138 0.3236487,0.274452 0.4344406,0.329644 0.2300833,0.114602 0.4239132,0.129098 0.5000976,0.03734 C 6.52738,22.00129 6.551558,21.282316 6.493315,20.986412 6.468484,20.860222 6.3698986,20.500134 6.2741945,20.186242 5.4970152,17.637346 4.8836119,14.413524 4.711664,11.973899 4.653153,11.14381 4.662447,9.5707233 4.729538,8.9365581 4.8553099,7.7479451 5.1060569,6.8374151 5.442051,6.3493162 5.5813776,6.146899 5.9393755,5.856246 6.3165901,5.6392487 7.5803568,4.9122823 9.8430021,4.3966997 12.43301,4.2454524 c 0.78181,-0.045644 3.109979,-0.031116 3.755068,0.023466 2.951593,0.249565 5.045274,0.8231335 6.179772,1.6929675 0.35978,0.2758492 0.537867,0.5422568 0.721828,1.0799332 0.31657,0.9253061 0.448009,1.9537338 0.444948,3.4811679 -0.0053,2.648355 -0.588068,6.220033 -1.540396,9.44092 -0.298071,1.008127 -0.327279,1.146834 -0.327935,1.558597 -8.38e-4,0.470976 0.05949,0.62753 0.24148,0.62753 0.188776,0 0.509036,-0.174235 0.746943,-0.406399 0.172018,-0.167867 0.259786,-0.3104 0.514933,-0.836317 0.997169,-2.055435 1.662583,-4.31996 1.920054,-6.534459 0.120619,-1.037338 0.132006,-1.2771 0.120814,-2.534341 -0.0094,-1.060297 -0.02486,-1.362345 -0.09108,-1.781034 C 24.885442,8.5776175 24.504289,7.4709538 23.935228,6.6193865 23.683953,6.2433759 23.172442,5.7028511 22.80773,5.4278679 22.184147,4.9577011 20.797974,4.2247026 19.76152,3.8170456 18.448896,3.3007652 17.227385,2.9939407 15.781591,2.8175266 c -0.344765,-0.042091 -0.98869,-0.06625 -1.628492,-0.070525 z m -0.01675,2.0526671 c -1.832387,0 -2.398523,0.031809 -3.638875,0.2124725 -2.05098,0.2987525 -3.6314147,0.8415397 -4.3544491,1.4955225 -0.477502,0.4319004 -0.7661274,1.3585465 -0.893843,2.8701713 -0.056838,0.6727516 -0.026365,2.4179786 0.057085,3.2732336 0.2735198,2.802703 0.995999,6.115124 1.8689289,8.568606 0.3413759,0.959494 0.4327086,1.092139 1.0165954,1.476305 1.1080494,0.729061 2.5263508,1.126104 4.5316018,1.268581 0.65136,0.04628 2.025651,0.04779 2.671098,0.0028 2.088985,-0.145242 3.44001,-0.514297 4.582136,-1.251654 0.523419,-0.33794 0.68471,-0.524576 0.871634,-1.008262 0.922467,-2.387034 1.681812,-5.7149 2.044447,-8.959756 0.05166,-0.462261 0.0674,-0.941198 0.0685,-2.089395 0.0014,-1.3697484 -0.0057,-1.5339705 -0.08712,-2.0393019 C 22.709697,7.5979003 22.452325,6.8798441 22.140861,6.5732987 21.336457,5.7816165 19.357764,5.1701172 16.68083,4.8858616 15.980088,4.8114567 15.657552,4.8005008 14.136359,4.7994716 Z m -0.630602,4.896778 3.326445,0 c 1.081839,1.8386569 1.473394,4.4797509 1.347361,9.1523379 l -0.121707,0 -1.077784,0 -0.136466,0 c -0.0077,-1.054628 -0.03948,-3.116623 -0.169186,-3.784654 l -1.650179,0 -0.01536,3.784654 -0.157558,0 -1.073614,0 -0.145929,0 -0.126032,-9.1523379 z m -6.3381468,8.31e-5 3.2785228,0 0.0085,1.1958198 -1.5771416,0 -0.00455,2.978168 1.2080636,0 0,1.183111 -1.2080636,0 0.031601,3.795463 -1.4405993,0 -0.2963342,-9.1525618 z m 3.8479348,0 1.700039,0 -0.03018,9.1525618 -1.487628,0 -0.182226,-9.1525618 z m 6.973743,0 4.04261,0 0.0089,1.1530578 -1.165435,0 -0.305649,7.999504 -1.439184,0 0.03376,-7.998163 -1.175049,0 0,-1.1543988 z m -3.014086,1.1271098 -0.01631,3.108885 1.655099,0 c -0.189698,-1.5008 -0.431656,-2.416471 -0.808219,-3.108885 l -0.830568,0 z M 8.4686799,23.813729 c -0.1237469,0 -0.1583749,0.01452 -0.1583749,0.06625 0,0.112116 0.5013651,0.562926 0.7980714,0.717581 0.615739,0.320958 1.9701126,0.614488 3.3440346,0.724731 0.666222,0.05344 3.269492,0.01791 3.851808,-0.05265 1.374211,-0.166498 2.457073,-0.457094 2.985395,-0.801123 0.287,-0.186916 0.556668,-0.466173 0.556668,-0.576501 0,-0.06513 -0.02522,-0.07827 -0.150552,-0.07827 -0.18857,0 -0.754117,0.115467 -1.413619,0.288586 -0.628959,0.165101 -0.972578,0.229287 -1.752584,0.327632 C 14.251,24.717243 11.755059,24.588228 9.8393708,24.084153 9.2630759,23.932515 8.6610372,23.813751 8.4686799,23.813751 Z"
     id="path4138"
     inkscape:connector-curvature="0" /></svg>